<svg xmlns="http://www.w3.org/2000/svg" version="1.1" xmlns:xlink="http://www.w3.org/1999/xlink" xmlns:svgjs="http://svgjs.dev/svgjs" width="1000" height="1000" viewBox="0 0 1000 1000"><rect width="1000" height="1000" fill="#ffffff"></rect><g transform="matrix(0.7,0,0,0.7,149.57575757575756,353.49109105665485)"><svg viewBox="0 0 396 166" data-background-color="#ffffff" preserveAspectRatio="xMidYMid meet" height="419" width="1000" xmlns="http://www.w3.org/2000/svg" xmlns:xlink="http://www.w3.org/1999/xlink"><g id="tight-bounds" transform="matrix(1,0,0,1,0.2400000000000091,-0.07985378590078085)"><svg viewBox="0 0 395.52 166.15970757180156" height="166.15970757180156" width="395.52"><g><svg viewBox="0 0 395.52 166.15970757180156" height="166.15970757180156" width="395.52"><g><svg viewBox="0 0 395.52 166.15970757180156" height="166.15970757180156" width="395.52"><g id="textblocktransform"><svg viewBox="0 0 395.52 166.15970757180156" height="166.15970757180156" width="395.52" id="textblock"><g><svg viewBox="0 0 395.52 166.15970757180156" height="166.15970757180156" width="395.52"><g transform="matrix(1,0,0,1,0,0)"><svg width="395.52" viewBox="0.34999775886535645 -36.43000411987305 194.1500244140625 77.06000518798828" height="166.15970757180156" data-palette-color="#61777f"><svg></svg><svg></svg><g class="wordmark-text-0" data-fill-palette-color="primary" id="text-0"><path xmlns="http://www.w3.org/2000/svg" d="M15.85-12.18h-4.4v12.18h-8.45v-36.43h12.85c2.567 0 4.77 0.307 6.61 0.92 1.847 0.607 3.363 1.443 4.55 2.51 1.193 1.067 2.073 2.323 2.64 3.77 0.567 1.453 0.85 3.02 0.85 4.7v0c0 1.82-0.29 3.487-0.87 5-0.587 1.52-1.48 2.82-2.68 3.9-1.2 1.087-2.72 1.933-4.56 2.54-1.84 0.607-4.02 0.91-6.54 0.91zM11.45-30.1v11.55h4.4c2.2 0 3.783-0.527 4.75-1.58 0.967-1.047 1.45-2.513 1.45-4.4v0c0-0.833-0.123-1.59-0.37-2.27-0.253-0.687-0.633-1.273-1.14-1.76-0.507-0.493-1.15-0.873-1.93-1.14-0.773-0.267-1.693-0.4-2.76-0.4v0zM50.45-36.43l14.1 36.43h-6.55c-0.733 0-1.337-0.17-1.81-0.51-0.473-0.347-0.803-0.787-0.99-1.32v0l-2.15-6.35h-13.85l-2.15 6.35c-0.167 0.467-0.49 0.89-0.97 1.27-0.487 0.373-1.08 0.56-1.78 0.56v0h-6.6l14.1-36.43zM44.5-23.85l-3.35 9.92h9.95l-3.35-9.97c-0.213-0.633-0.467-1.38-0.76-2.24-0.293-0.86-0.58-1.79-0.86-2.79v0c-0.267 1.02-0.543 1.963-0.83 2.83-0.28 0.867-0.547 1.617-0.8 2.25zM78.1-13.48h-2.15v13.48h-8.45v-36.43h11.85c2.633 0 4.88 0.273 6.74 0.82 1.86 0.54 3.377 1.293 4.55 2.26 1.173 0.967 2.027 2.107 2.56 3.42 0.533 1.32 0.8 2.753 0.8 4.3v0c0 1.187-0.157 2.303-0.47 3.35-0.32 1.053-0.793 2.027-1.42 2.92-0.627 0.887-1.393 1.68-2.3 2.38-0.907 0.7-1.953 1.277-3.14 1.73v0c0.573 0.28 1.103 0.63 1.59 1.05 0.493 0.413 0.923 0.92 1.29 1.52v0l7.75 12.68h-7.65c-1.413 0-2.43-0.533-3.05-1.6v0l-6.05-10.58c-0.267-0.467-0.58-0.8-0.94-1-0.353-0.2-0.857-0.3-1.51-0.3zM75.95-30.1v10.8h3.4c1.153 0 2.133-0.147 2.94-0.44 0.807-0.293 1.47-0.697 1.99-1.21 0.513-0.52 0.887-1.123 1.12-1.81 0.233-0.693 0.35-1.44 0.35-2.24v0c0-1.6-0.52-2.85-1.56-3.75-1.04-0.9-2.653-1.35-4.84-1.35v0zM109.2-36.43v14.75h1.35c1.247 0 2.147-0.39 2.7-1.17v0l8.2-11.9c0.453-0.653 0.967-1.097 1.54-1.33 0.573-0.233 1.277-0.35 2.11-0.35v0h7.35l-10.8 14.73c-0.38 0.533-0.78 0.973-1.2 1.32-0.413 0.353-0.84 0.647-1.28 0.88v0c0.64 0.233 1.22 0.553 1.74 0.96 0.527 0.407 1.007 0.953 1.44 1.64v0l11 16.9h-7.55c-0.48 0-0.893-0.033-1.24-0.1-0.34-0.067-0.637-0.167-0.89-0.3-0.247-0.133-0.46-0.297-0.64-0.49-0.187-0.193-0.363-0.413-0.53-0.66v0l-8.25-12.68c-0.3-0.467-0.68-0.793-1.14-0.98-0.46-0.193-1.08-0.29-1.86-0.29v0h-2.05v15.5h-8.45v-36.43zM136.45-36.43h23.45v6.5h-14.95v8.5h11.45v6.25h-11.45v8.68h14.95v6.5h-23.45zM175.3-13.48h-2.15v13.48h-8.45v-36.43h11.85c2.633 0 4.88 0.273 6.74 0.82 1.853 0.54 3.37 1.293 4.55 2.26 1.173 0.967 2.027 2.107 2.56 3.42 0.533 1.32 0.8 2.753 0.8 4.3v0c0 1.187-0.16 2.303-0.48 3.35-0.313 1.053-0.783 2.027-1.41 2.92-0.62 0.887-1.387 1.68-2.3 2.38-0.907 0.7-1.95 1.277-3.13 1.73v0c0.56 0.28 1.087 0.63 1.58 1.05 0.493 0.413 0.923 0.92 1.29 1.52v0l7.75 12.68h-7.65c-1.42 0-2.437-0.533-3.05-1.6v0l-6.05-10.58c-0.267-0.467-0.58-0.8-0.94-1-0.36-0.2-0.863-0.3-1.51-0.3zM173.15-30.1v10.8h3.4c1.147 0 2.127-0.147 2.94-0.44 0.807-0.293 1.467-0.697 1.98-1.21 0.52-0.52 0.897-1.123 1.13-1.81 0.233-0.693 0.35-1.44 0.35-2.24v0c0-1.6-0.52-2.85-1.56-3.75-1.047-0.9-2.66-1.35-4.84-1.35v0z" fill="#000000" fill-rule="nonzero" stroke="none" stroke-width="1" stroke-linecap="butt" stroke-linejoin="miter" stroke-miterlimit="10" stroke-dasharray="" stroke-dashoffset="0" font-family="none" font-weight="none" font-size="none" text-anchor="none" style="mix-blend-mode: normal" data-fill-palette-color="primary" opacity="1"></path><path xmlns="http://www.w3.org/2000/svg" d="M25.4 7.28l-2.1 3.92c-0.247 0.4-0.51 0.7-0.79 0.9-0.273 0.2-0.627 0.3-1.06 0.3v0c-0.38 0-0.793-0.12-1.24-0.36-0.44-0.24-0.94-0.51-1.5-0.81-0.553-0.3-1.19-0.57-1.91-0.81-0.713-0.247-1.53-0.37-2.45-0.37v0c-1.58 0-2.76 0.34-3.54 1.02-0.773 0.673-1.16 1.583-1.16 2.73v0c0 0.733 0.233 1.343 0.7 1.83 0.467 0.48 1.08 0.897 1.84 1.25 0.76 0.347 1.627 0.667 2.6 0.96 0.973 0.293 1.97 0.62 2.99 0.98 1.013 0.353 2.007 0.773 2.98 1.26 0.98 0.48 1.847 1.097 2.6 1.85 0.76 0.747 1.373 1.66 1.84 2.74 0.467 1.073 0.7 2.367 0.7 3.88v0c0 1.687-0.29 3.263-0.87 4.73-0.587 1.467-1.433 2.747-2.54 3.84-1.107 1.087-2.473 1.943-4.1 2.57-1.627 0.627-3.473 0.94-5.54 0.94v0c-1.133 0-2.287-0.117-3.46-0.35-1.173-0.233-2.31-0.563-3.41-0.99-1.1-0.427-2.133-0.93-3.1-1.51-0.967-0.587-1.81-1.237-2.53-1.95v0l2.5-3.95c0.187-0.3 0.447-0.543 0.78-0.73 0.333-0.18 0.69-0.27 1.07-0.27v0c0.5 0 1.003 0.157 1.51 0.47 0.513 0.32 1.09 0.67 1.73 1.05 0.64 0.387 1.377 0.737 2.21 1.05 0.833 0.32 1.817 0.48 2.95 0.48v0c1.533 0 2.727-0.337 3.58-1.01 0.847-0.68 1.27-1.753 1.27-3.22v0c0-0.847-0.233-1.537-0.7-2.07-0.467-0.533-1.08-0.977-1.84-1.33-0.753-0.347-1.613-0.653-2.58-0.92-0.967-0.267-1.96-0.563-2.98-0.89-1.013-0.327-2.003-0.727-2.97-1.2-0.967-0.473-1.83-1.097-2.59-1.87-0.76-0.78-1.373-1.747-1.84-2.9-0.467-1.16-0.7-2.59-0.7-4.29v0c0-1.367 0.277-2.7 0.83-4 0.547-1.3 1.353-2.46 2.42-3.48 1.067-1.013 2.377-1.823 3.93-2.43 1.547-0.613 3.32-0.92 5.32-0.92v0c1.12 0 2.207 0.09 3.26 0.27 1.06 0.173 2.067 0.43 3.02 0.77 0.947 0.347 1.833 0.757 2.66 1.23 0.827 0.473 1.563 1.01 2.21 1.61zM39.35 3.8v36.43h-8.5v-36.43zM61.25 33.55v0c1.133 0 2.147-0.187 3.04-0.56 0.893-0.373 1.647-0.91 2.26-1.61 0.613-0.7 1.083-1.553 1.41-2.56 0.327-1.013 0.49-2.16 0.49-3.44v0-21.58h8.45v21.58c0 2.233-0.363 4.283-1.09 6.15-0.727 1.867-1.763 3.473-3.11 4.82-1.347 1.353-2.987 2.403-4.92 3.15-1.933 0.753-4.11 1.13-6.53 1.13v0c-2.433 0-4.617-0.377-6.55-1.13-1.933-0.747-3.573-1.797-4.92-3.15-1.353-1.347-2.387-2.953-3.1-4.82-0.72-1.867-1.08-3.917-1.08-6.15v0-21.58h8.45v21.55c0 1.287 0.163 2.433 0.49 3.44 0.327 1.007 0.797 1.867 1.41 2.58 0.62 0.707 1.373 1.247 2.26 1.62 0.893 0.373 1.907 0.56 3.04 0.56z" fill="#000000" fill-rule="nonzero" stroke="none" stroke-width="1" stroke-linecap="butt" stroke-linejoin="miter" stroke-miterlimit="10" stroke-dasharray="" stroke-dashoffset="0" font-family="none" font-weight="none" font-size="none" text-anchor="none" style="mix-blend-mode: normal" data-fill-palette-color="primary" opacity="1"></path></g></svg></g></svg></g></svg></g></svg></g></svg></g><defs></defs></svg><rect width="395.52" height="166.15970757180156" fill="none" stroke="none" visibility="hidden"></rect></g></svg></g></svg>